# xmcd CD database file
#
# Track frame offsets:
#	150
#	24587
#	45650
#
# Disc length: 884 seconds
#
# Revision: 3
# Processed by: cddbd v1.5.2PL0 Copyright (c) Steve Scherf et al.
# Submitted via: CDex 1.70beta3
#
DISCID=1c037203
DTITLE=the GazettE - 紅蓮
DYEAR=2008
DGENRE=J-Rock
TTITLE0=紅蓮
TTITLE1=傀儡絵
TTITLE2=虚無の終わり 箱詰めの黙示
EXTD=YEAR: 2008
EXTT0=
EXTT1=
EXTT2=
PLAYORDER=
